<?xml version="1.0" standalone="no"?><!DOCTYPE svg PUBLIC "-//W3C//DTD SVG 1.1//EN" "http://www.w3.org/Graphics/SVG/1.1/DTD/svg11.dtd"><svg t="1617869977507" class="icon" viewBox="0 0 1024 1024" version="1.1" xmlns="http://www.w3.org/2000/svg" p-id="2472" width="21" height="21" xmlns:xlink="http://www.w3.org/1999/xlink"><defs><style type="text/css"></style></defs><path d="M330.965333 344.490667c0-107.093333 86.101333-194.197333 191.936-194.197334 105.856 0 191.957333 87.104 191.957334 194.197334a194.368 194.368 0 0 1-114.090667 177.237333h0.576l-78.293333 35.52-0.192 0.042667-78.549334-35.562667h0.597334a194.410667 194.410667 0 0 1-113.92-177.237333z m400.512 307.221333l-104.405333 47.296L853.333333 801.450667v50.922666H192v-50.901333l175.914667-79.637333 268.16-121.450667a280.533333 280.533333 0 0 0 164.117333-255.893333C800.170667 189.568 676.053333 64 522.901333 64c-153.109333 0-277.226667 125.568-277.226666 280.490667 0 113.941333 67.285333 211.84 163.776 255.722666l8.832 4.266667L106.666667 745.557333V938.666667h832v-193.130667l-207.189334-93.824z" p-id="2473" fill="#33A3F4"></path></svg>