<svg id="图层_1" data-name="图层 1" xmlns="http://www.w3.org/2000/svg" xmlns:xlink="http://www.w3.org/1999/xlink" width="225.05mm" height="64.76mm" viewBox="0 0 637.93 183.57"><defs><clipPath id="clip-path" transform="translate(-152.05 -170.48)"><rect x="152.05" y="170.48" width="224.77" height="183.57" style="fill:none"/></clipPath></defs><title>新logo</title><g style="clip-path:url(#clip-path)"><path d="M271.66,296.48c-1.36,1.26-3.17,1.63-4.79,2.33q-10.37,4.5-21.1,8.05-6.61,2.19-13.36,3.94c-4.68,1.21-9.44,2.18-14.22,2.94a70,70,0,0,1-9.14,1c-.49,0-.66-.46-.88-.8a93,93,0,0,1-14.25-34.1,98.67,98.67,0,0,1-1.67-21.35,2.21,2.21,0,0,1,.27-1.33c.65-.45,1.29-.12,1.9.08a59.24,59.24,0,0,0,13.29,2.8,57.2,57.2,0,0,0,22.18-2.26,58.25,58.25,0,0,0,15.91-7.65c.37-.25.73-.57,1.24-.41.89,2.67,1.7,5.38,2.67,8a93.26,93.26,0,0,0,18.16,30.07,34.89,34.89,0,0,1,3.78,4.63,3.61,3.61,0,0,1,0,4Z" transform="translate(-152.05 -170.48)" style="fill:#3a6ed4"/><path d="M268.1,313.76c3.6-1.46,7.16-3,10.65-4.72,2.89-1.42,5.91-2.59,8.71-4.18a2.11,2.11,0,0,1,.73-.14,20.8,20.8,0,0,0,7.18,3,71.91,71.91,0,0,0,8.33,3.68,89.22,89.22,0,0,0,24.52,5.65,90.27,90.27,0,0,0,23-.78c2.34-.4,4.67-.86,7-1.4,1.05-.24,1.2-.08.89.87a84.56,84.56,0,0,1-14,15.43,92.13,92.13,0,0,1-101.1,13.5c-.52-.25-1-.59-1.49-.88,2.15-1.48,4.38-2.84,6.44-4.45a58.34,58.34,0,0,0,15.73-18.79c1.2-2.23,2-4.67,3.34-6.81Z" transform="translate(-152.05 -170.48)" style="fill:#4d82ec"/><path d="M244.13,221c0-2.41-1-4.6-1.46-6.9a62.09,62.09,0,0,1-1.12-17.58,63.32,63.32,0,0,1,4.31-17.84A12.89,12.89,0,0,1,249.3,177a58.63,58.63,0,0,1,9.79-3.36,126.31,126.31,0,0,1,19.66-3,92.49,92.49,0,0,1,31.31,3.62,1.69,1.69,0,0,1,1.07.55c-1.07.4-2.06-.05-3-.16a58.67,58.67,0,0,0-55.78,25.8,54.17,54.17,0,0,0-7.86,17.72c-.22.93,0,1.91-.35,2.82Z" transform="translate(-152.05 -170.48)" style="fill:#5b91fb"/></g><path d="M359.14,315.77c-.08-.29.42-.94-.49-.67a69.83,69.83,0,0,1-13.29,2.34,99.08,99.08,0,0,1-29.86-2,94.35,94.35,0,0,1-19.1-6.7c-.43-.2-.94-.37-1-1,2.77.71,5.48,1.65,8.32,2.13,18.49,3.12,35-1.25,49.32-13.38a56,56,0,0,0,15.21-20.62,3.75,3.75,0,0,1,.24-.44c0-.06.12-.09.29-.19a18.83,18.83,0,0,1,.58,4.63,58.6,58.6,0,0,1-5.24,28,52.26,52.26,0,0,1-3.38,6.25,14,14,0,0,1-1.57,1.6Z" transform="translate(-152.05 -170.48)" style="fill:#5b91fb"/><path d="M268.1,313.76a50.78,50.78,0,0,1-5.36,10.92,57.84,57.84,0,0,1-16.9,17.37,8,8,0,0,1-3.25,1.76,26.92,26.92,0,0,1-4.73-2.47,96.87,96.87,0,0,1-16.24-12.11c-.08,0-.12-.07-.11-.12s0-.09.06-.09a10.41,10.41,0,0,1,4-1.17c4.36-.87,8.6-2.14,12.86-3.36q8.73-2.49,17.19-5.75c4.17-1.61,8.41-3.06,12.46-5Z" transform="translate(-152.05 -170.48)" style="fill:#3a6ed4"/><g style="clip-path:url(#clip-path)"><path d="M271.66,296.48a9.35,9.35,0,0,0,0-4,13,13,0,0,1,2.71,2.53c-.55,1.14-1.66,1.24-2.7,1.48Z" transform="translate(-152.05 -170.48)" style="fill:#4389b8"/><path d="M371.38,235.51q8.91-15.94,3.22-27.38t-23.79-14a100.69,100.69,0,0,0-23.51-.16q-32.31,3-69.36,19.28,30.24-12.89,56.94-15.48,32.56-2.82,40,12.19t-14.49,39.2q-22.31,24.44-60.89,43.6-39.1,19.42-71.66,22.25T167.74,302.9q-7.45-15,14.59-39.32,17.82-19.51,46.48-35.89-35.73,19.88-57.52,43.75-25.78,28.49-17,46.13t47,14.31c26.93-2.13,53.69-10.7,84.69-26.26,30.27-15,53.92-32.23,71.32-51.23a106.13,106.13,0,0,0,14.05-18.88" transform="translate(-152.05 -170.48)" style="fill:#5b91fb"/></g><path d="M247,249.75a66.74,66.74,0,0,1-8.91,5.22,57.92,57.92,0,0,1-18.2,5.26,48.84,48.84,0,0,1-7.44.47,62.35,62.35,0,0,1-18.06-3.06,4.2,4.2,0,0,0-1.81-.41,2.41,2.41,0,0,1,.26-3c.25-1.18.77-2.32.42-3.57A89.57,89.57,0,0,1,206.73,213a91.57,91.57,0,0,1,37.55-33.66,4.4,4.4,0,0,1,1.58-.7c.35.51,0,1-.12,1.42a58,58,0,0,0-2.66,34.07c.46,2,1.21,4,1.15,6.1a1.51,1.51,0,0,1-.1.73,94.22,94.22,0,0,0,2.44,26.46,6,6,0,0,1,.47,2.3Z" transform="translate(-152.05 -170.48)" style="fill:#4d82ec"/><path d="M471.51,184.22v15.56h-1.69v-2.11H458.65v11.55H457V197.67H445.79V200h-1.62V184.22H457V178h1.69v6.26ZM457,196.05v-10.2H445.79v10.2Zm12.86,0v-10.2H458.65v10.2Z" transform="translate(-152.05 -170.48)" style="fill:#5b91fb"/><path d="M505.64,185v24.1H504v-2.6H479.25V185H481v19.84H491.6V178.41h1.69v26.38H504V185Z" transform="translate(-152.05 -170.48)" style="fill:#5b91fb"/><path d="M542.25,199H527.8v8c0,1.21-.35,1.73-1.39,2a32.75,32.75,0,0,1-6.19.27,7.13,7.13,0,0,0-.79-1.59c3,.07,5.15.07,5.84,0s.87-.24.87-.72v-8H512v-1.55h14.15v-2.7A31.89,31.89,0,0,0,533.4,191H517.53v-1.52h17.73l.38-.11,1.11.87a33.14,33.14,0,0,1-9,5.29v1.9h14.45Zm-27.8-8.74h-1.59v-6.4h5.95a25.13,25.13,0,0,0-3.39-4.91l1.38-.66a22.28,22.28,0,0,1,3.42,4.84l-1.21.73h14.66a39.34,39.34,0,0,0,3.88-5.7l1.59.69a56.42,56.42,0,0,1-3.7,5h6.08v6.4H539.9v-4.88H514.45Zm13.07-6.43a22.55,22.55,0,0,0-2.8-5.61l1.45-.51a22.75,22.75,0,0,1,2.87,5.49Z" transform="translate(-152.05 -170.48)" style="fill:#5b91fb"/><path d="M556.63,180c-1,2.8-2.42,6.16-3.67,8.92,2.7,2.94,3.43,5.5,3.43,7.71,0,1.63-.39,3.12-1.28,3.74a3.58,3.58,0,0,1-1.66.59,21.18,21.18,0,0,1-2.39,0,3.29,3.29,0,0,0-.52-1.52c.9,0,1.7.07,2.32,0a2.28,2.28,0,0,0,1.17-.34,3.38,3.38,0,0,0,.8-2.63c0-2-.76-4.46-3.53-7.4,1.21-2.77,2.42-5.81,3.25-8.19h-5.7v28.31h-1.52V179.38h7.95l.28-.07Zm18.29,27.35c.86,0,1-.59,1.11-4.56a3.1,3.1,0,0,0,1.48.66c-.17,4.35-.59,5.42-2.45,5.42h-3.53c-2,0-2.52-.48-2.52-2.42V196.18h-4.43c-.55,6.64-2.35,10.79-8.82,13a3.53,3.53,0,0,0-1-1.28c6.12-2,7.68-5.77,8.2-11.76h-5.23v-1.55h19.44v1.55H570.6v10.27c0,.76.17.9,1.07.9ZM559.15,188h-1.59v-5.63h9.37a26.48,26.48,0,0,0-2.21-4.12l1.38-.58a22.87,22.87,0,0,1,2.35,4.11l-1.24.59h9.68V188H575.3v-4.11H559.15Zm1.18,1.91V188.4h13.72v1.53Z" transform="translate(-152.05 -170.48)" style="fill:#5b91fb"/><path d="M504.42,280.58c0,4.63-1,6.91-4.08,8.22s-7.33,1.59-13.9,1.52a32.49,32.49,0,0,0-3-8.29c4.35.34,9.4.27,10.79.27s2-.55,2-1.86V237.57h-41.9v11.89l4-4.28c2.15,2.28,4.43,4.84,6.64,7.4.83-3.81,1.38-7.89,1.87-12l7.32.77a141.87,141.87,0,0,1-3.45,18.11c2.42,3,4.56,6,6.15,8.3l-5,5.73c-1-1.65-2.35-3.66-3.94-5.87a46.2,46.2,0,0,1-8.78,14.79,31.12,31.12,0,0,0-4.84-3.45v11.47h-8.22V229.76h58.35Zm-50.13-4.15c3.67-4,6.43-9.41,8.51-15.63-2.84-3.45-5.74-7.05-8.51-10.09Zm36.37-1.25a72.43,72.43,0,0,0-3.94-7.19,48,48,0,0,1-9.13,15,51,51,0,0,0-6.36-4.36c4.77-4.49,8.09-10.65,10.51-18.11A118.8,118.8,0,0,0,473.1,250l5-4.5c1.93,2,3.94,4.22,5.87,6.57a114.28,114.28,0,0,0,1.8-11.41l7.26.69a125,125,0,0,1-3.39,18.05A68.26,68.26,0,0,1,496.05,270Z" transform="translate(-152.05 -170.48)" style="fill:#5b91fb"/><path d="M575.5,235a47.88,47.88,0,0,1-12,17.22,50,50,0,0,0,14.58,5.46,31.52,31.52,0,0,0-2.76,7.74c-.83-.2-1.66-.48-2.49-.76v25.17h-7.88v-3.46H549.43V290H541.9v-25.1c-1,.42-2.08.69-3,1a33.63,33.63,0,0,0-1.79-5.32,30.21,30.21,0,0,0,.07,6.22c-16.74,3.87-19.57,4.77-21.37,5.94a75.15,75.15,0,0,0-2.63-7.53c1.8-.42,3.32-1.87,5.54-4.36A70.68,70.68,0,0,0,524,254.3c-6,.63-7.67,1.11-8.78,1.59v0a59.26,59.26,0,0,0-2.77-7.67c1.59-.42,2.77-1.87,4.36-4.08a80.67,80.67,0,0,0,8.85-18.25l7.88,3.8a101.51,101.51,0,0,1-10.37,17.77l5.67-.48c1.31-2.08,2.49-4.29,3.53-6.37l4.42,2.77a46.53,46.53,0,0,0,12.65-18.32l7.33,2.14c-.69,1.66-1.45,3.39-2.28,5.12h14.86l1.39-.28Zm-62.09,44.74c5.81-1.66,14.87-4.64,23.51-7.68l1.45,7.05c-8,3.11-16.39,6.23-23.09,8.85Zm23.23-20.05a9.65,9.65,0,0,0-.83-1.59A59.93,59.93,0,0,0,551.16,252a45.87,45.87,0,0,1-5.39-6.22,42,42,0,0,1-4.91,5c-.55-1-1.52-2.49-2.56-4a123.63,123.63,0,0,1-10.72,14.65Zm33.74,4.14a59.24,59.24,0,0,1-13-6.7,69,69,0,0,1-12.65,6.7Zm-5.46,15.35V271H549.43v8.16Zm-14.59-39.47a34.66,34.66,0,0,0,6.85,8.15,36.09,36.09,0,0,0,7.46-8.15Z" transform="translate(-152.05 -170.48)" style="fill:#5b91fb"/><path d="M608.34,260.8a39.83,39.83,0,0,0-.27,6.85c-17.08,3.25-19.91,4-21.71,5.11a52.19,52.19,0,0,0-2.42-6.84c1.73-.42,3.32-2.08,5.46-4.56a83,83,0,0,0,5.25-7c-6.08.69-7.81,1.11-8.85,1.66a66.34,66.34,0,0,0-2.55-7.33c1.45-.34,2.62-1.79,4.14-4.08a83.86,83.86,0,0,0,8.51-18.87l7.33,3.46a99.38,99.38,0,0,1-10.17,18.73l5.88-.41c1.52-2.63,3-5.33,4.22-8l6.43,3.94a126.66,126.66,0,0,1-12.93,19.22Zm-24.26,18.88c6.29-1.18,15.9-3.46,25.16-5.53L610,281c-8.43,2.28-17.49,4.63-24.4,6.5Zm64.22,6.43H621v4.49h-7.75V255.06c-.9,1.18-1.86,2.35-2.83,3.46a47.27,47.27,0,0,0-3.53-7.67c5.19-6.29,9.82-16.67,12-24.62l7.88,2.22a101.61,101.61,0,0,1-3.87,9.81h8.85a50.5,50.5,0,0,0-4.22-9l7-2.91a47.59,47.59,0,0,1,4.91,9.61l-5.12,2.35h13.14v7.4H637.1v6h8.72V259H637.1v5.81H646v7.4H637.1v6.22h11.2Zm-18.87-40.45H621v6h8.43Zm0,13.34H621v5.81h8.43ZM621,278.43h8.43v-6.22H621Z" transform="translate(-152.05 -170.48)" style="fill:#5b91fb"/><path d="M679.35,262.19c-2.42.76-5,1.52-7.53,2.21v16.52c0,3.94-.62,6.15-2.91,7.47-2.14,1.45-5.32,1.73-9.88,1.73a33.49,33.49,0,0,0-2.28-8.09c2.55.07,5,.07,5.87,0s1.11-.28,1.11-1.18V266.68c-2.84.76-5.39,1.45-7.88,2.14l-1.8-7.95c2.76-.62,6.08-1.38,9.68-2.28V246.84h-8.57V239h8.57V226h8.09v13h6.84v7.82h-6.84v9.68l6.5-1.8Zm37.41-24.48v29H708.6v-3.6H690c-.69,9.55-3,20.4-9.54,27.66a27.91,27.91,0,0,0-6.57-5.88c7.4-8.29,8.16-20.39,8.16-29.59V237.71h15.49a46.75,46.75,0,0,0-4.84-8.78l7.46-2.7a42.34,42.34,0,0,1,5.67,9.54l-4.77,1.94Zm-8.16,17.56V245H690.28v10.23Z" transform="translate(-152.05 -170.48)" style="fill:#5b91fb"/><path d="M747.74,270.07a74.94,74.94,0,0,0-4.15-7.61v28.07h-8V265.64a64,64,0,0,1-7.54,13.69,45.48,45.48,0,0,0-3.8-7.81c3.87-4.43,7.74-11.82,10.23-18.53H725.2v-7.67h10.44V237.5c-2.7.42-5.26.83-7.81,1.11a25,25,0,0,0-2.22-6.36,105.88,105.88,0,0,0,22.27-5.67l4.63,6.71a62.56,62.56,0,0,1-8.92,2.55v9.48h9.12V253h-9.12v.55c2,1.94,7.67,8.44,9,10Zm34.08,3v17.42h-8.09v-16l-20.88,3.6-1.31-7.82,22.19-3.8V226h8.09v39.13l6.85-1.18,1.31,7.68Zm-17.35-9.61c-2.14-3-7-7.47-11-10.58l5.25-4.7c3.94,2.77,9.06,7,11.34,10Zm1.8-18.25c-1.94-3-6.43-7.4-10.31-10.37l5.4-4.7c3.73,2.83,8.57,6.91,10.64,9.95Z" transform="translate(-152.05 -170.48)" style="fill:#5b91fb"/><path d="M473.59,329.43v1.83H442.3v-1.83Z" transform="translate(-152.05 -170.48)" style="fill:#5b91fb"/><path d="M519.22,319.09a26.1,26.1,0,0,1-5.22,9.16,24,24,0,0,0,8.34,5.91,6.21,6.21,0,0,0-1.08,1.35c-.58-.28-1.1-.55-1.66-.83V346.2H518V345H508v1.31h-1.56V334.47c-.93.52-1.9,1-2.83,1.42a4.28,4.28,0,0,0-1-1.28,26.76,26.76,0,0,0,9.37-6.46,31.29,31.29,0,0,1-3.8-5.81,27.28,27.28,0,0,1-3.8,4.94,10.26,10.26,0,0,0-1.25-1v.41h-4.32v5.53h4.67v1.52h-4.67v7.16l4.87-1.14.18,1.49c-4.67,1.21-9.44,2.38-12.9,3.21l-.35-1.62,1.94-.42v-12H494v11.69l3.25-.8V326.66h-4.91v-10.1h10.75v9.51a25.86,25.86,0,0,0,6.6-11.1l1.63.42c-.38,1.1-.83,2.21-1.28,3.28h7.78l.35-.07Zm-17.67-1h-7.67v7.09h7.67Zm17,16a27,27,0,0,1-5.53-4.63,31.26,31.26,0,0,1-5.77,4.63Zm-.55,9.41v-7.88H508v7.88Zm-9-22.58a28.93,28.93,0,0,0,3.94,6.22,25.87,25.87,0,0,0,4.22-6.88h-7.82Z" transform="translate(-152.05 -170.48)" style="fill:#5b91fb"/><path d="M569.91,343.05v1.66H539.38v-1.66h13.27V315.59h1.73v11.07H567.8v1.66H554.38v14.73Z" transform="translate(-152.05 -170.48)" style="fill:#5b91fb"/><path d="M599.29,321.27a43.44,43.44,0,0,1-2.52,4.77h17.15v17.8c0,1.25-.28,1.8-1.25,2.08s-2.9.31-5.95.31a12.7,12.7,0,0,0-.58-1.66c2.55.1,4.7.07,5.36,0s.79-.2.79-.79v-4.46H596.66v7H595v-17.8a29.44,29.44,0,0,1-6.47,6.43,7.47,7.47,0,0,0-1-1.28,30.93,30.93,0,0,0,10-12.41h-9.34v-1.6h10a38,38,0,0,0,1.63-4.63l1.62.38a42.8,42.8,0,0,1-1.52,4.25h18.15v1.6Zm13,6.29H596.66v4.36h15.63Zm0,10.27V333.4H596.66v4.43Z" transform="translate(-152.05 -170.48)" style="fill:#5b91fb"/><path d="M645.51,315.59a53.14,53.14,0,0,1-3.73,7.61v23.1h-1.59V325.69a34.36,34.36,0,0,1-4.22,5.19,6.59,6.59,0,0,0-1-1.49,41.51,41.51,0,0,0,9-14.24Zm11.93,7.92v20.58c0,1.14-.28,1.66-1,2a15.91,15.91,0,0,1-4.28.31,9.57,9.57,0,0,0-.59-1.7c1.73.07,3.25,0,3.7,0s.59-.13.59-.58V323.51h-6.06a30.4,30.4,0,0,1-3.38,6.37,16.91,16.91,0,0,0-1.39-1c2.56-3.35,4.46-8.47,5.6-13.69l1.63.35a53.5,53.5,0,0,1-1.87,6.39h15.28l.35-.07,1.07.35c-.45,2.35-1.07,5.22-1.52,6.91l-1.42-.27c.31-1.35.73-3.42,1-5.33Zm-5.57,6.19a35.34,35.34,0,0,1-5.25,11.93c-.31-.24-1-.69-1.45-.93,2.24-2.77,4-7,5.08-11.31Zm10.31-.52A44.88,44.88,0,0,1,666.81,341l-1.59.52a46.5,46.5,0,0,0-4.49-11.82Z" transform="translate(-152.05 -170.48)" style="fill:#5b91fb"/></svg>